<mxfile host="app.diagrams.net" agent="Mozilla/5.0 (Windows NT 10.0; Win64; x64) AppleWebKit/537.36 (KHTML, like Gecko) Chrome/129.0.0.0 Safari/537.36" version="24.7.17">
  <diagram name="Page-1" id="f23cRR-GV24haznwgPrP">
    <mxGraphModel dx="1185" dy="1747" grid="1" gridSize="10" guides="1" tooltips="1" connect="1" arrows="1" fold="1" page="1" pageScale="1" pageWidth="850" pageHeight="1100" math="0" shadow="0">
      <root>
        <mxCell id="0" />
        <mxCell id="1" parent="0" />
        <mxCell id="QYfNof5FU1ITTFuqa_8a-25" style="edgeStyle=orthogonalEdgeStyle;rounded=0;orthogonalLoop=1;jettySize=auto;html=1;" edge="1" parent="1" source="QYfNof5FU1ITTFuqa_8a-1" target="QYfNof5FU1ITTFuqa_8a-16">
          <mxGeometry relative="1" as="geometry" />
        </mxCell>
        <mxCell id="QYfNof5FU1ITTFuqa_8a-1" value="&lt;h6 style=&quot;font-size: 8px;&quot;&gt;&lt;br&gt;&lt;/h6&gt;" style="rounded=0;whiteSpace=wrap;html=1;strokeWidth=1;" vertex="1" parent="1">
          <mxGeometry x="50" y="-680" width="120" height="100" as="geometry" />
        </mxCell>
        <mxCell id="QYfNof5FU1ITTFuqa_8a-2" value="user" style="text;html=1;align=center;verticalAlign=middle;resizable=0;points=[];autosize=1;strokeColor=none;fillColor=none;" vertex="1" parent="1">
          <mxGeometry x="85" y="-685" width="50" height="30" as="geometry" />
        </mxCell>
        <mxCell id="QYfNof5FU1ITTFuqa_8a-3" value="&lt;font style=&quot;font-size: 8px;&quot;&gt;username: varchar (100)&lt;/font&gt;&lt;div&gt;&lt;font style=&quot;font-size: 8px;&quot;&gt;password:&amp;nbsp;&lt;/font&gt;&lt;span style=&quot;font-size: 8px; background-color: initial;&quot;&gt;varchar (255)&lt;/span&gt;&lt;/div&gt;&lt;div&gt;&lt;font style=&quot;font-size: 8px;&quot;&gt;email:&amp;nbsp;&lt;/font&gt;&lt;span style=&quot;font-size: 8px; background-color: initial;&quot;&gt;varchar (255)&lt;/span&gt;&lt;/div&gt;&lt;div&gt;&lt;font style=&quot;font-size: 8px;&quot;&gt;address:&amp;nbsp;&lt;/font&gt;&lt;span style=&quot;font-size: 8px; background-color: initial;&quot;&gt;varchar (255)&lt;/span&gt;&lt;/div&gt;&lt;div&gt;&lt;font style=&quot;font-size: 8px;&quot;&gt;phone:&amp;nbsp;&lt;/font&gt;&lt;span style=&quot;font-size: 8px; background-color: initial;&quot;&gt;varchar (20)&lt;/span&gt;&lt;/div&gt;" style="text;html=1;align=center;verticalAlign=middle;resizable=0;points=[];autosize=1;strokeColor=none;fillColor=none;" vertex="1" parent="1">
          <mxGeometry x="55" y="-665" width="110" height="90" as="geometry" />
        </mxCell>
        <mxCell id="QYfNof5FU1ITTFuqa_8a-26" style="edgeStyle=orthogonalEdgeStyle;rounded=0;orthogonalLoop=1;jettySize=auto;html=1;" edge="1" parent="1" source="QYfNof5FU1ITTFuqa_8a-5" target="QYfNof5FU1ITTFuqa_8a-9">
          <mxGeometry relative="1" as="geometry" />
        </mxCell>
        <mxCell id="QYfNof5FU1ITTFuqa_8a-5" value="&lt;h6 style=&quot;font-size: 8px;&quot;&gt;&lt;br&gt;&lt;/h6&gt;" style="rounded=0;whiteSpace=wrap;html=1;strokeWidth=1;" vertex="1" parent="1">
          <mxGeometry x="30" y="-530" width="140" height="130" as="geometry" />
        </mxCell>
        <mxCell id="QYfNof5FU1ITTFuqa_8a-6" value="product" style="text;html=1;align=center;verticalAlign=middle;resizable=0;points=[];autosize=1;strokeColor=none;fillColor=none;" vertex="1" parent="1">
          <mxGeometry x="70" y="-530" width="60" height="30" as="geometry" />
        </mxCell>
        <mxCell id="QYfNof5FU1ITTFuqa_8a-7" value="productID: int&lt;div&gt;name: varchar (255)&lt;/div&gt;&lt;div&gt;description:&amp;nbsp;&lt;span style=&quot;background-color: initial;&quot;&gt;TEXT&lt;/span&gt;&lt;/div&gt;&lt;div&gt;price: DECIMAL (10, 2)&lt;/div&gt;&lt;div&gt;category: varchar (100)&lt;/div&gt;&lt;div&gt;stock: int&lt;/div&gt;" style="text;html=1;align=center;verticalAlign=middle;resizable=0;points=[];autosize=1;strokeColor=none;fillColor=none;" vertex="1" parent="1">
          <mxGeometry x="25" y="-500" width="150" height="100" as="geometry" />
        </mxCell>
        <mxCell id="QYfNof5FU1ITTFuqa_8a-8" value="&lt;h6 style=&quot;font-size: 8px;&quot;&gt;&lt;br&gt;&lt;/h6&gt;" style="rounded=0;whiteSpace=wrap;html=1;strokeWidth=1;" vertex="1" parent="1">
          <mxGeometry x="190" y="-280" width="160" height="100" as="geometry" />
        </mxCell>
        <mxCell id="QYfNof5FU1ITTFuqa_8a-9" value="Category" style="text;html=1;align=center;verticalAlign=middle;resizable=0;points=[];autosize=1;strokeColor=none;fillColor=none;" vertex="1" parent="1">
          <mxGeometry x="235" y="-280" width="70" height="30" as="geometry" />
        </mxCell>
        <mxCell id="QYfNof5FU1ITTFuqa_8a-10" value="categoryID: int&lt;div&gt;name:&amp;nbsp;&lt;span style=&quot;background-color: initial;&quot;&gt;varchar (100&lt;/span&gt;&lt;span style=&quot;background-color: initial;&quot;&gt;)&lt;/span&gt;&lt;/div&gt;&lt;div&gt;description: TEXT&lt;/div&gt;" style="text;html=1;align=center;verticalAlign=middle;resizable=0;points=[];autosize=1;strokeColor=none;fillColor=none;" vertex="1" parent="1">
          <mxGeometry x="205" y="-250" width="130" height="60" as="geometry" />
        </mxCell>
        <mxCell id="QYfNof5FU1ITTFuqa_8a-29" style="edgeStyle=orthogonalEdgeStyle;rounded=0;orthogonalLoop=1;jettySize=auto;html=1;" edge="1" parent="1" source="QYfNof5FU1ITTFuqa_8a-11" target="QYfNof5FU1ITTFuqa_8a-7">
          <mxGeometry relative="1" as="geometry">
            <Array as="points">
              <mxPoint x="222" y="-520" />
              <mxPoint x="222" y="-490" />
            </Array>
          </mxGeometry>
        </mxCell>
        <mxCell id="QYfNof5FU1ITTFuqa_8a-11" value="&lt;h6 style=&quot;font-size: 8px;&quot;&gt;&lt;br&gt;&lt;/h6&gt;" style="rounded=0;whiteSpace=wrap;html=1;strokeWidth=1;" vertex="1" parent="1">
          <mxGeometry x="300" y="-585" width="130" height="85" as="geometry" />
        </mxCell>
        <mxCell id="QYfNof5FU1ITTFuqa_8a-12" value="ShoppingCart" style="text;html=1;align=center;verticalAlign=middle;resizable=0;points=[];autosize=1;strokeColor=none;fillColor=none;" vertex="1" parent="1">
          <mxGeometry x="315" y="-585" width="100" height="30" as="geometry" />
        </mxCell>
        <mxCell id="QYfNof5FU1ITTFuqa_8a-13" value="&lt;font style=&quot;font-size: 11px;&quot;&gt;CartID: int&lt;/font&gt;&lt;div style=&quot;font-size: 11px;&quot;&gt;&lt;font style=&quot;font-size: 11px;&quot;&gt;dateCreated: DateTime&lt;/font&gt;&lt;/div&gt;" style="text;html=1;align=center;verticalAlign=middle;resizable=0;points=[];autosize=1;strokeColor=none;fillColor=none;" vertex="1" parent="1">
          <mxGeometry x="295" y="-550" width="140" height="40" as="geometry" />
        </mxCell>
        <mxCell id="QYfNof5FU1ITTFuqa_8a-14" value="&lt;h6 style=&quot;font-size: 8px;&quot;&gt;&lt;br&gt;&lt;/h6&gt;" style="rounded=0;whiteSpace=wrap;html=1;strokeWidth=1;" vertex="1" parent="1">
          <mxGeometry x="500" y="-700" width="170" height="100" as="geometry" />
        </mxCell>
        <mxCell id="QYfNof5FU1ITTFuqa_8a-15" value="Order" style="text;html=1;align=center;verticalAlign=middle;resizable=0;points=[];autosize=1;strokeColor=none;fillColor=none;" vertex="1" parent="1">
          <mxGeometry x="560" y="-700" width="50" height="30" as="geometry" />
        </mxCell>
        <mxCell id="QYfNof5FU1ITTFuqa_8a-16" value="OrderID: int&lt;div&gt;date: DateTime&lt;/div&gt;&lt;div&gt;status: varchar (100)&lt;/div&gt;&lt;div&gt;total price: DECIMAL (10, 2)&lt;/div&gt;" style="text;html=1;align=center;verticalAlign=middle;resizable=0;points=[];autosize=1;strokeColor=none;fillColor=none;" vertex="1" parent="1">
          <mxGeometry x="500" y="-680" width="170" height="70" as="geometry" />
        </mxCell>
        <mxCell id="QYfNof5FU1ITTFuqa_8a-30" style="edgeStyle=orthogonalEdgeStyle;rounded=0;orthogonalLoop=1;jettySize=auto;html=1;" edge="1" parent="1" source="QYfNof5FU1ITTFuqa_8a-17" target="QYfNof5FU1ITTFuqa_8a-7">
          <mxGeometry relative="1" as="geometry" />
        </mxCell>
        <mxCell id="QYfNof5FU1ITTFuqa_8a-17" value="&lt;h6 style=&quot;font-size: 8px;&quot;&gt;&lt;br&gt;&lt;/h6&gt;" style="rounded=0;whiteSpace=wrap;html=1;strokeWidth=1;" vertex="1" parent="1">
          <mxGeometry x="30" y="-310" width="120" height="130" as="geometry" />
        </mxCell>
        <mxCell id="QYfNof5FU1ITTFuqa_8a-18" value="CartProduct" style="text;html=1;align=center;verticalAlign=middle;resizable=0;points=[];autosize=1;strokeColor=none;fillColor=none;" vertex="1" parent="1">
          <mxGeometry x="40" y="-310" width="90" height="30" as="geometry" />
        </mxCell>
        <mxCell id="QYfNof5FU1ITTFuqa_8a-20" value="CartID: int&lt;div&gt;productID: int&lt;/div&gt;&lt;div&gt;amount: int&lt;/div&gt;" style="text;html=1;align=center;verticalAlign=middle;resizable=0;points=[];autosize=1;strokeColor=none;fillColor=none;" vertex="1" parent="1">
          <mxGeometry x="40" y="-280" width="90" height="60" as="geometry" />
        </mxCell>
        <mxCell id="QYfNof5FU1ITTFuqa_8a-21" value="&lt;h6 style=&quot;font-size: 8px;&quot;&gt;&lt;br&gt;&lt;/h6&gt;" style="rounded=0;whiteSpace=wrap;html=1;strokeWidth=1;" vertex="1" parent="1">
          <mxGeometry x="360" y="-390" width="120" height="100" as="geometry" />
        </mxCell>
        <mxCell id="QYfNof5FU1ITTFuqa_8a-22" value="OrderProduct" style="text;html=1;align=center;verticalAlign=middle;resizable=0;points=[];autosize=1;strokeColor=none;fillColor=none;" vertex="1" parent="1">
          <mxGeometry x="370" y="-390" width="100" height="30" as="geometry" />
        </mxCell>
        <mxCell id="QYfNof5FU1ITTFuqa_8a-23" value="OrderID: int&lt;div&gt;productID: int&lt;/div&gt;&lt;div&gt;amount: int&lt;/div&gt;&lt;div&gt;price: decimal (10, 2)&lt;/div&gt;" style="text;html=1;align=center;verticalAlign=middle;resizable=0;points=[];autosize=1;strokeColor=none;fillColor=none;" vertex="1" parent="1">
          <mxGeometry x="350" y="-360" width="140" height="70" as="geometry" />
        </mxCell>
        <mxCell id="QYfNof5FU1ITTFuqa_8a-24" style="edgeStyle=orthogonalEdgeStyle;rounded=0;orthogonalLoop=1;jettySize=auto;html=1;exitX=0.5;exitY=1;exitDx=0;exitDy=0;" edge="1" parent="1" source="QYfNof5FU1ITTFuqa_8a-11" target="QYfNof5FU1ITTFuqa_8a-11">
          <mxGeometry relative="1" as="geometry" />
        </mxCell>
        <mxCell id="QYfNof5FU1ITTFuqa_8a-32" style="edgeStyle=orthogonalEdgeStyle;rounded=0;orthogonalLoop=1;jettySize=auto;html=1;entryX=0.951;entryY=1.008;entryDx=0;entryDy=0;entryPerimeter=0;" edge="1" parent="1" target="QYfNof5FU1ITTFuqa_8a-1">
          <mxGeometry relative="1" as="geometry">
            <mxPoint x="300" y="-570" as="sourcePoint" />
          </mxGeometry>
        </mxCell>
        <mxCell id="QYfNof5FU1ITTFuqa_8a-33" value="" style="endArrow=none;html=1;rounded=0;exitX=-0.002;exitY=0.298;exitDx=0;exitDy=0;exitPerimeter=0;" edge="1" parent="1" source="QYfNof5FU1ITTFuqa_8a-21">
          <mxGeometry width="50" height="50" relative="1" as="geometry">
            <mxPoint x="430" y="-310" as="sourcePoint" />
            <mxPoint x="480" y="-360" as="targetPoint" />
          </mxGeometry>
        </mxCell>
        <mxCell id="QYfNof5FU1ITTFuqa_8a-34" value="" style="endArrow=none;html=1;rounded=0;exitX=-0.009;exitY=0.231;exitDx=0;exitDy=0;exitPerimeter=0;entryX=1.003;entryY=0.23;entryDx=0;entryDy=0;entryPerimeter=0;" edge="1" parent="1" source="QYfNof5FU1ITTFuqa_8a-17" target="QYfNof5FU1ITTFuqa_8a-17">
          <mxGeometry width="50" height="50" relative="1" as="geometry">
            <mxPoint x="120" y="-270" as="sourcePoint" />
            <mxPoint x="170" y="-320" as="targetPoint" />
          </mxGeometry>
        </mxCell>
        <mxCell id="QYfNof5FU1ITTFuqa_8a-39" value="" style="endArrow=none;html=1;rounded=0;exitX=-0.004;exitY=0.174;exitDx=0;exitDy=0;exitPerimeter=0;entryX=1.013;entryY=0.176;entryDx=0;entryDy=0;entryPerimeter=0;" edge="1" parent="1" source="QYfNof5FU1ITTFuqa_8a-1" target="QYfNof5FU1ITTFuqa_8a-1">
          <mxGeometry width="50" height="50" relative="1" as="geometry">
            <mxPoint x="90" y="-610" as="sourcePoint" />
            <mxPoint x="140" y="-660" as="targetPoint" />
          </mxGeometry>
        </mxCell>
        <mxCell id="QYfNof5FU1ITTFuqa_8a-40" value="" style="endArrow=none;html=1;rounded=0;exitX=0.003;exitY=0.193;exitDx=0;exitDy=0;exitPerimeter=0;entryX=1.002;entryY=0.192;entryDx=0;entryDy=0;entryPerimeter=0;" edge="1" parent="1">
          <mxGeometry width="50" height="50" relative="1" as="geometry">
            <mxPoint x="300.1299999999999" y="-559.9150000000001" as="sourcePoint" />
            <mxPoint x="430" y="-560" as="targetPoint" />
          </mxGeometry>
        </mxCell>
        <mxCell id="QYfNof5FU1ITTFuqa_8a-41" value="" style="endArrow=none;html=1;rounded=0;exitX=-0.001;exitY=0.231;exitDx=0;exitDy=0;exitPerimeter=0;entryX=0.997;entryY=0.231;entryDx=0;entryDy=0;entryPerimeter=0;" edge="1" parent="1" source="QYfNof5FU1ITTFuqa_8a-14" target="QYfNof5FU1ITTFuqa_8a-14">
          <mxGeometry width="50" height="50" relative="1" as="geometry">
            <mxPoint x="500" y="-650" as="sourcePoint" />
            <mxPoint x="550" y="-700" as="targetPoint" />
          </mxGeometry>
        </mxCell>
        <mxCell id="QYfNof5FU1ITTFuqa_8a-42" value="" style="endArrow=none;html=1;rounded=0;" edge="1" parent="1" target="QYfNof5FU1ITTFuqa_8a-7">
          <mxGeometry width="50" height="50" relative="1" as="geometry">
            <mxPoint x="30.001428571428505" y="-500" as="sourcePoint" />
            <mxPoint x="41.43000000000001" y="-520" as="targetPoint" />
          </mxGeometry>
        </mxCell>
        <mxCell id="QYfNof5FU1ITTFuqa_8a-43" value="" style="endArrow=none;html=1;rounded=0;" edge="1" parent="1">
          <mxGeometry width="50" height="50" relative="1" as="geometry">
            <mxPoint x="30" y="-500" as="sourcePoint" />
            <mxPoint x="170" y="-499" as="targetPoint" />
            <Array as="points">
              <mxPoint x="30" y="-500" />
              <mxPoint x="170" y="-500" />
            </Array>
          </mxGeometry>
        </mxCell>
        <mxCell id="QYfNof5FU1ITTFuqa_8a-45" value="" style="endArrow=none;html=1;rounded=0;" edge="1" parent="1">
          <mxGeometry width="50" height="50" relative="1" as="geometry">
            <mxPoint x="190" y="-250" as="sourcePoint" />
            <mxPoint x="350" y="-250" as="targetPoint" />
          </mxGeometry>
        </mxCell>
        <mxCell id="QYfNof5FU1ITTFuqa_8a-51" value="" style="endArrow=classic;startArrow=classic;html=1;rounded=0;exitX=1.001;exitY=0.356;exitDx=0;exitDy=0;exitPerimeter=0;" edge="1" parent="1" source="QYfNof5FU1ITTFuqa_8a-21">
          <mxGeometry width="50" height="50" relative="1" as="geometry">
            <mxPoint x="540" y="-560" as="sourcePoint" />
            <mxPoint x="590" y="-610" as="targetPoint" />
          </mxGeometry>
        </mxCell>
        <mxCell id="QYfNof5FU1ITTFuqa_8a-52" value="" style="endArrow=classic;startArrow=classic;html=1;rounded=0;" edge="1" parent="1" target="QYfNof5FU1ITTFuqa_8a-7">
          <mxGeometry width="50" height="50" relative="1" as="geometry">
            <mxPoint x="360" y="-360" as="sourcePoint" />
            <mxPoint x="410" y="-410" as="targetPoint" />
          </mxGeometry>
        </mxCell>
      </root>
    </mxGraphModel>
  </diagram>
</mxfile>
